:SAMPLES-PER-SECOND 30
:FULLY-SPECIFIED
:DEGREES
731
root  3.93726 38.543 14.2276 179.097 -65.0983 172.187
RightUpLeg  17.145 -12.45 -8.5657
RightLeg  32.514 5.50385 3.56938
RightFoot  -10.1254 -0.267221 16.8186
RightToes  2.91037e-010 0 -3.6325e-017
Spine  8.33343 2.36516 8.85857
Spine1  10.0284 5.57379 -11.0844
HEad  -20.5044 -9.47064 2.68344
LeftShoulder1  0.334181 2.58748 -30.3572
LeftArm  -6.26831 21.1415 -39.1072
LeftForeArm  25.3755 -10.196 -6.66018
LeftHand  -0.0501107 5.75307 -4.40821
RightShoulder  -0.308596 -4.45346 25.3397
RightArm  50.6394 15.1466 61.8469
RightForeArm  -6.37107 23.6585 5.54121
RightHand  -0.729901 5.17447 -8.30555
LeftUpLeg  -8.06601 2.48322 -10.1137
LeftLeg  5.28229 18.5616 -2.10061
LeftFoot  6.88118 -2.28722 13.9188
LeftToes  -7.53974e-010 3.3384e-011 -1.25048e-011
732
root  5.029 38.4365 14.9671 177.268 -62.8923 174.008
RightUpLeg  19.1169 -14.3925 -8.19397
RightLeg  25.8149 3.5347 1.61545
RightFoot  -15.7983 0.405741 13.1723
RightToes  2.91037e-010 0 -3.6325e-017
Spine  9.27919 1.88847 10.5068
Spine1  9.57181 5.50474 -11.0169
HEad  -22.2322 -8.4483 2.46463
LeftShoulder1  0.398801 2.40844 -30.3032
LeftArm  -5.22047 19.5522 -39.9513
LeftForeArm  24.8815 -10.9167 -6.88314
LeftHand  -0.0320509 5.33158 -4.25119
RightShoulder  -0.285466 -4.38182 25.282
RightArm  49.2681 17.0311 61.3419
RightForeArm  -5.53529 19.8397 6.64166
RightHand  -0.662747 4.83279 -7.81066
LeftUpLeg  -8.60835 2.34288 -9.09411
LeftLeg  1.86988 20.4764 -3.24059
LeftFoot  9.87868 -2.72589 14.1556
LeftToes  -7.53974e-010 3.3384e-011 -1.25048e-011
733
root  6.28564 38.2924 15.8056 173.838 -60.1306 177.284
RightUpLeg  19.0496 -13.0754 -6.04514
RightLeg  22.4515 3.29181 1.26991
RightFoot  -19.5011 0.539609 9.33272
RightToes  2.91037e-010 0 -3.6325e-017
Spine  11.5052 1.24526 12.8241
Spine1  8.96262 5.29216 -10.8481
HEad  -24.6479 -6.91927 2.0032
LeftShoulder1  0.348785 2.55569 -30.6973
LeftArm  -3.87753 16.3952 -40.4669
LeftForeArm  24.6864 -11.0581 -7.35016
LeftHand  -0.0181789 4.97033 -3.28099
RightShoulder  -0.238208 -4.23016 25.3655
RightArm  40.4643 19.624 60.3267
RightForeArm  1.11318 14.8332 9.40818
RightHand  -0.601964 3.98793 -7.70679
LeftUpLeg  -9.73156 2.96514 -6.91298
LeftLeg  0.0346703 21.8568 -3.93565
LeftFoot  12.3668 -2.85127 13.1646
LeftToes  -7.53974e-010 3.3384e-011 -1.25048e-011
734
root  7.47151 38.1314 16.6674 170.327 -57.4209 -179.359
RightUpLeg  17.7124 -10.7331 -3.32326
RightLeg  21.3322 3.94724 1.48613
RightFoot  -21.6633 0.418001 6.23098
RightToes  2.91037e-010 0 -3.6325e-017
Spine  13.357 0.524545 14.8816
Spine1  9.10038 4.75575 -9.98608
HEad  -26.4423 -5.71792 0.537323
LeftShoulder1  0.313284 2.66595 -31.2763
LeftArm  -3.79902 11.6904 -41.1512
LeftForeArm  26.2665 -9.1367 -8.14461
LeftHand  -0.0289382 5.28673 -2.4761
RightShoulder  -0.232504 -4.20387 25.7308
RightArm  30.7278 22.184 58.4276
RightForeArm  6.90875 9.94717 10.9991
RightHand  -0.594655 3.78541 -7.78283
LeftUpLeg  -10.8587 4.18352 -4.16407
LeftLeg  -0.726924 21.0982 -4.36279
LeftFoot  13.8466 -2.16209 9.29555
LeftToes  -7.53974e-010 3.3384e-011 -1.25048e-011
735
root  8.56394 38.0361 17.4009 168.967 -55.2447 -176.814
RightUpLeg  14.3618 -10.0816 -0.821623
RightLeg  21.6446 3.47157 1.2963
RightFoot  -22.4865 0.121765 2.7912
RightToes  2.91037e-010 0 -3.6325e-017
Spine  12.7794 0.187613 15.3067
Spine1  9.65472 3.83047 -7.81732
HEad  -26.984 -4.13961 1.07828
LeftShoulder1  0.350048 2.55844 -30.9259
LeftArm  -3.94762 7.69508 -42.6253
LeftForeArm  28.0138 -7.18319 -8.65303
LeftHand  -0.0395177 5.74085 -2.11748
RightShoulder  -0.246992 -4.23421 26.376
RightArm  22.8467 24.014 56.1641
RightForeArm  9.65501 5.81622 10.9627
RightHand  -0.613436 3.26257 -8.45373
LeftUpLeg  -13.0931 4.95439 -1.41761
LeftLeg  -0.698485 14.3308 -4.08571
LeftFoot  14.239 -0.13344 0.140374
LeftToes  -7.53974e-010 3.3384e-011 -1.25048e-011
736
root  9.5116 38.0462 18.0603 168.596 -53.0965 -175.87
RightUpLeg  11.3996 -9.08659 0.824263
RightLeg  22.313 2.51632 0.913933
RightFoot  -22.2608 -0.124382 0.262427
RightToes  2.91037e-010 0 -3.6325e-017
Spine  12.7601 0.0659801 14.2044
Spine1  9.02554 2.75634 -4.95548
HEad  -25.5186 -3.24969 1.77136
LeftShoulder1  0.492188 2.16047 -30.5591
LeftArm  -4.12912 4.54408 -43.7254
LeftForeArm  29.4239 -4.8833 -8.84172
LeftHand  -0.0454469 5.87203 -1.23534
RightShoulder  -0.283541 -4.33043 26.9897
RightArm  17.5189 23.4906 53.406
RightForeArm  8.82458 3.9231 9.46167
RightHand  -0.554974 3.23193 -7.70593
LeftUpLeg  -14.1159 4.98824 0.650601
LeftLeg  -0.808783 3.84581 -3.09882
LeftFoot  13.3105 2.07804 -9.86327
LeftToes  -7.53974e-010 3.3384e-011 -1.25048e-011
737
root  10.3633 38.2461 18.7247 168.446 -51.2458 -176.458
RightUpLeg  10.0085 -7.8343 0.929441
RightLeg  22.3343 2.75749 1.02216
RightFoot  -20.7432 -0.197346 -0.6864
RightToes  2.91037e-010 0 -3.6325e-017
Spine  13.7193 -0.479187 12.4777
Spine1  8.59068 1.6504 -3.1505
HEad  -23.9585 -2.08291 2.2713
LeftShoulder1  0.562391 1.93934 -29.8347
LeftArm  -3.84497 1.51987 -44.3892
LeftForeArm  29.5137 -3.0437 -8.92865
LeftHand  -0.0376691 5.33185 -0.487662
RightShoulder  -0.312772 -4.41415 27.1257
RightArm  13.4237 21.5091 51.2763
RightForeArm  5.65283 3.59518 7.91834
RightHand  -0.572593 3.20418 -7.95733
LeftUpLeg  -13.7151 4.68468 1.51388
LeftLeg  0.527362 -3.63646 -1.93343
LeftFoot  11.9528 2.46826 -12.2206
LeftToes  -7.53974e-010 3.3384e-011 -1.25048e-011
738
root  11.0982 38.5498 19.3742 168.903 -50.0296 -177.322
RightUpLeg  8.92335 -7.2665 0.503595
RightLeg  21.2238 3.43384 1.24302
RightFoot  -18.4516 -0.189359 -1.03687
RightToes  2.91037e-010 0 -3.6325e-017
Spine  13.4391 -1.12524 10.8907
Spine1  9.09419 0.49271 -1.88197
HEad  -22.4553 -1.70668 2.29309
LeftShoulder1  0.572955 1.91543 -29.97
LeftArm  -3.58058 -1.59124 -44.0638
LeftForeArm  30.63 -2.37273 -9.02216
LeftHand  -0.0408476 5.75025 -2.78811
RightShoulder  -0.238583 -4.20946 26.3453
RightArm  9.99948 18.2385 49.2899
RightForeArm  1.13212 4.3463 6.68617
RightHand  -0.62772 3.63998 -8.32104
LeftUpLeg  -13.8142 4.0526 1.63314
LeftLeg  4.87947 -6.68469 -1.04316
LeftFoot  8.48639 1.34289 -7.96383
LeftToes  -7.53974e-010 3.3384e-011 -1.25048e-011
739
root  11.7115 38.8364 19.9805 169.818 -48.856 -178.658
RightUpLeg  8.00727 -6.71933 -0.229005
RightLeg  19.868 3.90862 1.23261
RightFoot  -16.2622 -0.173466 -1.48911
RightToes  2.91037e-010 0 -3.6325e-017
Spine  13.1206 -1.56716 9.60197
Spine1  8.89884 -0.233487 -1.32685
HEad  -20.2096 -1.23176 2.88248
LeftShoulder1  0.587352 1.87143 -29.9132
LeftArm  -3.27315 -4.35699 -43.962
LeftForeArm  31.4221 -1.86651 -9.19979
LeftHand  -0.0557377 6.22776 -2.51471
RightShoulder  -0.247636 -4.24112 26.1649
RightArm  8.32884 14.1281 46.1151
RightForeArm  -1.7968 5.91509 6.07561
RightHand  -0.600872 4.03269 -7.66047
LeftUpLeg  -13.2878 2.7196 1.65605
LeftLeg  10.005 -5.44975 -0.637878
LeftFoot  4.76591 0.647691 -4.79396
LeftToes  -7.53974e-010 3.3384e-011 -1.25048e-011
740
root  12.2258 39.0653 20.5862 170.784 -47.6587 -179.981
RightUpLeg  7.39504 -7.34577 -1.49821
RightLeg  18.1994 5.85054 1.60088
RightFoot  -14.4496 -0.154483 -2.07278
RightToes  2.91037e-010 0 -3.6325e-017
Spine  12.566 -1.86865 9.00982
Spine1  8.82548 -0.568446 -1.2944
HEad  -18.6874 -1.79263 2.76193
LeftShoulder1  0.653146 1.65368 -29.1884
LeftArm  -3.90503 -5.9534 -44.8451
LeftForeArm  31.6473 -3.02121 -8.81437
LeftHand  -0.0626335 6.22563 -2.9678
RightShoulder  -0.315555 -4.45907 25.8708
RightArm  8.20714 10.1251 42.5766
RightForeArm  -2.95772 7.53069 5.95025
RightHand  -0.593409 3.90166 -7.66126
LeftUpLeg  -12.1448 1.52903 1.59456
LeftLeg  15.1972 -2.97866 -0.574323
LeftFoot  0.80442 0.286394 -2.73299
LeftToes  -7.53974e-010 3.3384e-011 -1.25048e-011
741
root  12.7097 39.193 21.1908 171.343 -46.3654 179.704
RightUpLeg  6.2911 -7.57528 -1.70509
RightLeg  16.8753 7.38862 1.61942
RightFoot  -12.9526 -0.121156 -2.4203
RightToes  2.91037e-010 0 -3.6325e-017
Spine  11.8106 -2.06098 8.84441
Spine1  8.65902 -0.897969 -0.615044
HEad  -17.3151 -2.5528 1.89911
LeftShoulder1  0.555639 1.92975 -29.1949
LeftArm  -3.47291 -7.65404 -45.3285
LeftForeArm  29.6893 -4.89096 -9.0678
LeftHand  -0.0299669 5.52868 -0.7736
RightShoulder  -0.296295 -4.42667 24.9232
RightArm  9.15768 6.31769 39.1376
RightForeArm  -1.75395 8.72103 6.01619
RightHand  -0.518252 3.80181 -6.80149
LeftUpLeg  -11.2225 0.663855 1.89863
LeftLeg  20.8871 -1.64285 -0.374371
LeftFoot  -2.71209 0.134226 -1.64347
LeftToes  -7.53974e-010 3.3384e-011 -1.25048e-011
742
root  13.1722 39.2448 21.8241 171.202 -45.0601 -179.906
RightUpLeg  5.21105 -8.0166 -1.53819
RightLeg  15.9469 9.05825 1.86374
RightFoot  -11.605 -0.0853568 -2.67554
RightToes  2.91037e-010 0 -3.6325e-017
Spine  11.4438 -2.32589 9.63638
Spine1  8.36603 -0.993719 -0.568369
HEad  -15.5072 -3.26667 0.802124
LeftShoulder1  0.576595 1.85551 -28.8586
LeftArm  -3.12574 -8.80424 -46.2803
LeftForeArm  27.7456 -7.4008 -8.87335
LeftHand  -0.0313663 5.5343 -0.540517
RightShoulder  -0.285221 -4.40796 24.3435
RightArm  11.0462 3.07549 35.3872
RightForeArm  -1.43161 9.23048 6.37568
RightHand  -0.55221 3.54098 -7.40869
LeftUpLeg  -9.58592 -0.700191 2.48608
LeftLeg  26.1318 -0.671826 -0.0334319
LeftFoot  -5.48343 0.152885 -2.33782
LeftToes  -7.53974e-010 3.3384e-011 -1.25048e-011
743
root  13.6014 39.2359 22.4449 170.781 -43.6427 -178.987
RightUpLeg  3.77475 -8.15802 -0.948458
RightLeg  15.6247 10.5024 2.35172
RightFoot  -10.5144 -0.0542848 -2.31349
RightToes  2.91037e-010 0 -3.6325e-017
Spine  10.8114 -2.6329 10.3124
Spine1  8.68456 -1.28776 -0.0222883
HEad  -15.1398 -3.75589 0.692383
LeftShoulder1  0.482816 2.12515 -28.9026
LeftArm  -1.21381 -9.74366 -47.195
LeftForeArm  23.7051 -10.865 -8.2464
LeftHand  -0.0279217 4.87057 0.428593
RightShoulder  -0.247739 -4.29988 23.7595
RightArm  12.2987 0.823999 32.047
RightForeArm  -0.548495 8.76716 6.59286
RightHand  -0.475028 2.85583 -6.91015
LeftUpLeg  -7.63062 -1.30422 3.25168
LeftLeg  30.9228 -0.455501 0.0396361
LeftFoot  -7.69567 0.126372 -2.47582
LeftToes  -7.53974e-010 3.3384e-011 -1.25048e-011
